<svg width="768" height="786" viewBox="0 0 768 786" fill="none" xmlns="http://www.w3.org/2000/svg">
  <rect width="768" height="786" fill="#0B0E14"/>
  <path d="M120 130C120 95.8 147.8 68 182 68H586C620.2 68 648 95.8 648 130V522C648 556.2 620.2 584 586 584H324L188 706C176 716.7 158 708.1 158 691.9V584H182C147.8 584 120 556.2 120 522V130Z" fill="#F3F4F6"/>
  <rect x="206" y="210" width="356" height="250" rx="54" fill="#10131A"/>
  <path d="M301.5 390L347.5 280H392.5L438.5 390H405L394 361H346L335 390H301.5ZM356 333H384L370 295L356 333Z" fill="#7CF63D"/>
  <path d="M453 390V280H493V390H453Z" fill="#7CF63D"/>
  <path d="M385 460L413 432H392V392H424V442L404 462H385V460Z" fill="#F3F4F6"/>
</svg>
